<svg width="512" height="371" viewBox="0 0 512 371" fill="none" xmlns="http://www.w3.org/2000/svg">
<path d="M193.304 200.992C218.749 186.302 245.185 192.265 259.876 217.71L261.406 220.361C267.115 230.249 266.38 235.66 272.089 245.548L254.07 260.293C262.155 245.334 265.204 231.675 259.286 221.424C249.956 205.266 226.8 198.857 200.874 213.826C176.635 227.82 167.964 250.676 177.154 266.594C177.306 266.857 177.461 267.119 177.621 267.38L183.405 274.446C190.355 280.818 201.419 285.145 219.407 283.522L194.748 292.615C192.378 288.51 189.34 284.793 186.252 281.211C173.106 274.937 161.182 273.035 151.994 278.339C135.835 287.668 129.427 310.824 144.395 336.75C158.39 360.989 181.262 369.972 197.18 360.782C204.777 356.396 208.029 353.393 210.958 343.985L200.514 325.895C198.081 322.797 190.845 315.559 173.119 325.793L172.285 324.347L208.824 303.251L209.659 304.697C208.234 306.759 208.734 310.01 210.038 313.516L228.062 298.523C213.749 318.846 215.75 333.449 221.598 343.578C230.788 359.496 254.917 363.415 279.156 349.42C305.082 334.451 311.11 311.194 301.782 295.035C295.863 284.785 282.51 280.595 265.513 280.118L287.291 271.885C293 281.773 298.054 283.842 303.763 293.73L305.294 296.381C319.984 321.826 311.929 347.702 286.485 362.393C260.92 377.153 234.897 370.792 220.415 345.71C220.348 345.594 220.282 345.476 220.216 345.359C212.544 351.005 206.204 357.985 197.14 363.218C172.057 377.7 146.32 369.887 131.559 344.322C116.869 318.877 122.832 292.441 148.277 277.75L150.93 276.218C160.306 270.805 165.653 271.183 174.612 266.37C160.272 241.345 167.801 215.717 193.304 200.992Z" fill="url(#paint0_linear_809_817)"/>
<path d="M451.242 151.937L455.651 149.392L442.804 127.139L456.325 127.615L465.586 143.655L481.842 134.27L478.081 127.756L487.958 127.658L489.292 129.969L512 116.858L506.283 135.63L495.991 141.572L497.324 143.881L492.302 152.388L488.541 145.874L306.164 251.169L307.496 253.478L302.475 261.985L304.393 265.307L300.097 275.07L291.264 259.772L248.553 284.431L254.267 265.66L284.565 248.168L275.732 232.869L286.336 234.031L288.254 237.353L298.132 237.258L299.464 239.566L405.74 178.207L396.478 162.164L402.827 150.217L415.676 172.471L420.085 169.926L407.19 147.591L427.086 136.103C428.63 135.212 429.158 133.237 428.268 131.695C427.376 130.151 425.402 129.623 423.859 130.513L403.962 142.001L400.246 135.564L427.37 110.589L451.242 151.937Z" fill="url(#paint1_linear_809_817)"/>
<path d="M232.209 7.92905C206.765 22.6196 198.71 48.4937 213.4 73.9383L214.932 76.5916C220.641 86.4801 225.694 88.5486 231.403 98.437L253.182 90.2041C236.184 89.7271 222.831 85.5374 216.913 75.2871C207.584 59.1278 213.611 35.8706 239.538 20.9016C263.777 6.90764 287.904 10.8242 297.095 26.7412C297.246 27.0031 297.396 27.268 297.541 27.5359L300.772 36.0827C302.814 45.2874 301.028 57.0323 290.629 71.7975L310.833 54.9881C308.462 50.881 306.76 46.3896 305.201 41.9211C306.342 27.4004 310.66 16.1246 319.848 10.8203C336.007 1.49132 359.264 7.51874 374.233 33.4457C388.227 57.6841 384.568 81.9852 368.651 91.1755C361.054 95.5611 356.828 96.8748 347.217 94.7075L336.773 76.6183C335.306 72.9629 332.654 63.0783 350.379 52.8442L349.544 51.3982L313.007 72.4931L313.842 73.9391C316.342 73.7367 318.908 75.7957 321.293 78.6818L299.286 86.7975C324.043 84.563 335.69 93.5961 341.539 103.725C350.729 119.644 342.057 142.497 317.818 156.491C291.891 171.46 268.735 165.052 259.406 148.893C253.489 138.642 256.538 124.984 264.623 110.027L246.604 124.771C252.312 134.659 251.578 140.069 257.285 149.956L258.817 152.609C273.508 178.054 299.944 184.017 325.389 169.327C350.955 154.567 358.457 128.848 343.975 103.765C343.908 103.649 343.84 103.534 343.772 103.419C352.5 99.5967 361.716 97.5925 370.782 92.3579C395.865 77.8762 401.965 51.6815 387.206 26.1167C372.515 0.672079 346.641 -7.38264 321.196 7.3071L318.543 8.83902C309.167 14.2524 306.818 19.0705 298.17 24.4228C283.667 -0.502921 257.71 -6.79389 232.209 7.92905Z" fill="url(#paint2_linear_809_817)"/>
<path d="M60.7555 206.78L56.349 209.324L43.5003 187.069L37.1512 199.017L46.4137 215.06L30.1557 224.447L26.3934 217.93L21.3695 226.438L22.7036 228.749L0 241.857L19.1178 246.291L29.4028 240.353L30.7356 242.661L40.6144 242.562L36.8549 236.05L219.23 130.756L220.563 133.064L230.438 132.964L232.359 136.291L242.963 137.449L234.132 122.152L276.846 97.4915L257.733 93.0552L227.433 110.549L218.6 95.25L214.3 105.013L216.218 108.335L211.197 116.842L212.531 119.152L106.255 180.511L96.9924 164.468L83.4708 163.992L96.3195 186.247L91.9106 188.793L79.0141 166.455L59.1199 177.941C57.5759 178.833 55.6033 178.304 54.7123 176.762C53.8208 175.218 54.3481 173.242 55.8923 172.351L75.7866 160.865L72.0721 154.431L36.8819 165.43L60.7555 206.78Z" fill="url(#paint3_linear_809_817)"/>
<defs>
<linearGradient id="paint0_linear_809_817" x1="208.385" y1="1.77082" x2="603.226" y2="26.4083" gradientUnits="userSpaceOnUse">
<stop stop-color="#3BC3E6"/>
<stop offset="1" stop-color="#16B1A6"/>
</linearGradient>
<linearGradient id="paint1_linear_809_817" x1="208.385" y1="1.77082" x2="603.226" y2="26.4083" gradientUnits="userSpaceOnUse">
<stop stop-color="#3BC3E6"/>
<stop offset="1" stop-color="#16B1A6"/>
</linearGradient>
<linearGradient id="paint2_linear_809_817" x1="208.385" y1="1.77082" x2="603.226" y2="26.4083" gradientUnits="userSpaceOnUse">
<stop stop-color="#3BC3E6"/>
<stop offset="1" stop-color="#16B1A6"/>
</linearGradient>
<linearGradient id="paint3_linear_809_817" x1="208.385" y1="1.77082" x2="603.226" y2="26.4083" gradientUnits="userSpaceOnUse">
<stop stop-color="#3BC3E6"/>
<stop offset="1" stop-color="#16B1A6"/>
</linearGradient>
</defs>
</svg>
