<svg width="621" height="327" viewBox="0 0 621 327" fill="none" xmlns="http://www.w3.org/2000/svg">
<path d="M286.861 71.944C295.969 66.6857 305.431 68.8202 310.69 77.9278L311.238 78.8768C313.281 82.4163 313.018 84.353 315.062 87.8924L308.612 93.1701C311.506 87.8158 312.597 82.9265 310.479 79.2574C307.139 73.4737 298.851 71.1797 289.57 76.5376C280.894 81.5467 277.791 89.7278 281.08 95.4256C281.134 95.5196 281.19 95.6135 281.247 95.7069L283.317 98.2362C285.805 100.517 289.766 102.066 296.204 101.485L287.378 104.739C286.529 103.27 285.442 101.94 284.336 100.658C279.631 98.412 275.363 97.7309 272.074 99.6295C266.29 102.969 263.996 111.257 269.354 120.538C274.363 129.214 282.55 132.429 288.248 129.14C290.968 127.57 292.131 126.495 293.18 123.127L289.442 116.652C288.571 115.543 285.981 112.952 279.636 116.616L279.337 116.098L292.416 108.547L292.715 109.064C292.205 109.802 292.384 110.966 292.851 112.221L299.302 106.854C294.179 114.129 294.895 119.356 296.988 122.982C300.278 128.679 308.915 130.082 317.591 125.073C326.871 119.715 329.029 111.39 325.69 105.606C323.571 101.937 318.791 100.437 312.707 100.266L320.503 97.3194C322.547 100.859 324.355 101.599 326.399 105.139L326.947 106.088C332.205 115.195 329.322 124.458 320.215 129.716C311.064 134.999 301.749 132.723 296.565 123.745C296.541 123.703 296.517 123.661 296.494 123.619C293.748 125.64 291.478 128.138 288.234 130.012C279.256 135.195 270.043 132.399 264.76 123.248C259.502 114.14 261.636 104.677 270.744 99.4188L271.693 98.8705C275.049 96.933 276.963 97.0681 280.17 95.3454C275.037 86.3879 277.732 77.2144 286.861 71.944Z" fill="url(#paint0_linear_809_814)"/>
<path d="M379.188 54.3849L380.766 53.4737L376.168 45.5087L381.008 45.6789L384.323 51.4205L390.141 48.0611L388.795 45.7295L392.33 45.6945L392.808 46.5216L400.936 41.8287L398.89 48.548L395.206 50.675L395.683 51.5012L393.885 54.5462L392.539 52.2145L327.258 89.9045L327.735 90.7307L325.938 93.7757L326.624 94.9648L325.087 98.4596L321.925 92.9836L306.637 101.81L308.682 95.0914L319.527 88.8302L316.365 83.3541L320.161 83.7699L320.847 84.959L324.383 84.9248L324.86 85.7511L362.901 63.7882L359.586 58.0457L361.858 53.7691L366.457 61.735L368.036 60.8238L363.42 52.8292L370.542 48.7174C371.094 48.3981 371.283 47.6913 370.965 47.1392C370.645 46.5868 369.939 46.3976 369.386 46.7164L362.265 50.8282L360.934 48.5244L370.643 39.5846L379.188 54.3849Z" fill="url(#paint1_linear_809_814)"/>
<path d="M300.787 2.83815C291.679 8.09655 288.796 17.358 294.054 26.4657L294.602 27.4155C296.646 30.955 298.455 31.6954 300.498 35.2349L308.294 32.288C302.21 32.1172 297.43 30.6176 295.311 26.9485C291.972 21.1644 294.13 12.8397 303.41 7.48158C312.086 2.47255 320.722 3.87446 324.012 9.57185C324.066 9.66558 324.12 9.76041 324.172 9.85628L325.328 12.9156C326.059 16.2103 325.42 20.4144 321.698 25.6994L328.93 19.6826C328.081 18.2125 327.472 16.6049 326.914 15.0054C327.322 9.80779 328.868 5.77171 332.156 3.87306C337.94 0.533809 346.265 2.69128 351.623 11.9717C356.632 20.6476 355.323 29.3461 349.625 32.6357C346.906 34.2055 345.393 34.6757 341.953 33.8999L338.215 27.425C337.69 26.1166 336.74 22.5785 343.085 18.9152L342.786 18.3977L329.708 25.9484L330.007 26.466C330.901 26.3936 331.82 27.1306 332.674 28.1636L324.796 31.0686C333.658 30.2688 337.827 33.5021 339.921 37.1278C343.21 42.8257 340.106 51.0058 331.43 56.015C322.149 61.373 313.861 59.0792 310.522 53.2951C308.404 49.6262 309.495 44.7373 312.389 39.3833L305.939 44.661C307.983 48.2002 307.72 50.1368 309.763 53.6758L310.311 54.6256C315.569 63.7334 325.032 65.8678 334.14 60.6095C343.291 55.3261 345.976 46.1204 340.793 37.142C340.769 37.1006 340.744 37.0594 340.72 37.0182C343.844 35.65 347.143 34.9326 350.388 33.0589C359.366 27.8753 361.55 18.4991 356.267 9.34829C351.008 0.240566 341.747 -2.64257 332.639 2.61553L331.689 3.16387C328.333 5.10156 327.492 6.82617 324.397 8.74198C319.206 -0.180017 309.915 -2.43183 300.787 2.83815Z" fill="url(#paint2_linear_809_814)"/>
<path d="M239.416 74.0155L237.839 74.9262L233.24 66.9603L230.967 71.2369L234.282 76.9794L228.463 80.3393L227.116 78.0068L225.318 81.0522L225.796 81.8793L217.669 86.5712L224.512 88.1582L228.193 86.0327L228.671 86.859L232.207 86.8235L230.861 84.4926L296.141 46.8032L296.618 47.6295L300.153 47.5936L300.84 48.7844L304.636 49.1988L301.475 43.7236L316.764 34.8964L309.923 33.3085L299.077 39.5702L295.915 34.0941L294.376 37.5887L295.063 38.7777L293.265 41.8227L293.743 42.6498L255.702 64.6127L252.387 58.8702L247.547 58.7L252.146 66.6659L250.568 67.5771L245.952 59.5816L238.831 63.6929C238.278 64.012 237.572 63.8229 237.253 63.2709C236.934 62.7181 237.123 62.011 237.675 61.6919L244.796 57.5806L243.467 55.2776L230.871 59.2145L239.416 74.0155Z" fill="url(#paint3_linear_809_814)"/>
<path d="M78.27 245.761L74.3988 268.263C64.5999 268.263 54.8011 272.013 46.091 272.013C20.9284 272.013 4.83895 255.197 4.83895 229.551C4.83895 204.025 20.8075 186.726 46.3329 186.726C46.3329 186.726 47.3007 186.726 48.9943 186.726C58.9142 186.726 62.6644 189.63 72.5842 189.63L75.8505 209.59C68.1082 197.009 59.1561 188.783 48.8734 188.783C32.6629 188.783 17.7831 203.421 17.7831 229.43C17.7831 253.746 31.2112 270.198 47.1797 270.198C57.3415 270.198 69.1969 265.359 78.27 245.761ZM86.2363 229.43C86.2363 206.324 98.2127 186.726 121.319 186.726C144.304 186.726 156.401 206.324 156.401 229.43C156.401 252.536 144.304 272.013 121.319 272.013C98.3336 272.013 86.2363 252.536 86.2363 229.43ZM99.1804 229.188C99.1804 246.245 104.019 270.198 121.319 270.198C138.134 270.198 143.457 245.882 143.457 229.188C143.457 212.131 138.618 188.541 121.319 188.541C103.535 188.541 99.1804 211.889 99.1804 229.188ZM223.257 199.187V272.013H219.749L171.238 196.767L171.843 259.552C171.843 265.117 175.23 268.504 179.101 271.045V272.013H163.738V271.045C167.972 268.504 170.028 265.117 170.028 259.552L169.424 198.098C169.424 194.711 167.73 190.114 163.617 187.694V186.726H179.464L221.442 252.294V199.187C221.442 193.622 218.055 190.234 214.184 187.694V186.726H229.548V187.694C225.313 190.234 223.257 193.622 223.257 199.187ZM310.294 245.761L306.422 268.263C296.624 268.263 286.825 272.013 278.115 272.013C252.952 272.013 236.863 255.197 236.863 229.551C236.863 204.025 252.831 186.726 278.357 186.726C278.357 186.726 279.324 186.726 281.018 186.726C290.938 186.726 294.688 189.63 304.608 189.63L307.874 209.59C300.132 197.009 291.18 188.783 280.897 188.783C264.687 188.783 249.807 203.421 249.807 229.43C249.807 253.746 263.235 270.198 279.203 270.198C289.365 270.198 301.221 265.359 310.294 245.761ZM322.736 199.187C322.736 193.622 321.889 191.323 318.26 187.694V186.726H339.551V187.694C336.164 191.323 334.833 193.622 334.833 199.187V259.552C334.833 265.117 336.164 267.416 339.551 271.045V272.013H318.26V271.045C321.889 267.416 322.736 265.117 322.736 259.552V199.187ZM363.907 270.198H381.932C388.948 270.198 397.295 265.722 402.134 257.617H403.102L400.078 272.013H347.212V271.045C350.842 267.416 351.688 265.117 351.688 259.552L351.325 199.187C351.325 193.622 350.479 191.323 346.849 187.694V186.726H399.715L402.739 201.122H401.771C396.933 193.017 388.585 188.541 381.569 188.541H363.544V227.978C368.988 227.857 376.004 227.978 382.174 226.769C385.319 226.164 388.222 222.897 390.4 219.873H391.247V235.6H390.4C388.585 232.696 385.44 231.245 382.174 230.64C376.004 229.551 368.988 229.914 363.544 229.793L363.907 270.198ZM439.58 186.726C456.274 186.726 469.218 192.775 469.218 211.526C469.218 226.769 460.75 232.938 448.532 234.511C457.121 236.93 459.661 245.519 462.081 254.834C463.653 261.367 466.92 266.085 471.154 266.085C472.726 266.085 475.025 266.569 477.565 261.851L478.654 262.214C475.63 271.045 467.403 272.98 461.96 272.013C453.854 270.561 451.556 262.214 448.774 253.141C446.596 246.124 444.66 237.898 437.886 234.995L426.514 234.874L426.272 259.552C426.272 264.754 427.482 267.416 430.99 271.045V272.013H409.699V271.045C413.449 267.295 414.296 264.754 414.296 259.552V197.614C414.296 193.864 413.449 191.323 409.699 187.694V186.726H439.58ZM426.393 188.904L426.514 233.059H437.281C447.806 233.059 456.395 224.833 456.395 212.373C456.395 197.251 446.838 188.662 435.708 188.783L426.393 188.904ZM551.498 253.141V268.263C541.094 268.263 531.9 272.013 520.771 272.013C495.608 272.013 479.64 254.955 479.64 229.309C479.64 203.784 495.608 186.484 521.134 186.484C521.134 186.484 522.102 186.484 523.795 186.484C533.715 186.484 537.465 189.388 547.385 189.388L550.651 209.348C542.909 196.767 533.957 188.541 523.674 188.541C507.464 188.541 492.584 203.179 492.584 229.188C492.584 253.504 505.891 270.198 521.86 270.198C529.481 270.198 533.231 269.351 539.522 263.545V245.398C539.038 242.011 536.739 233.422 518.956 233.422V231.97H555.611V233.422C551.014 235.6 551.498 247.213 551.498 253.141ZM579.982 270.198H598.007C605.023 270.198 613.37 265.722 618.209 257.617H619.177L616.153 272.013H563.287V271.045C566.917 267.416 567.763 265.117 567.763 259.552L567.4 199.187C567.4 193.622 566.554 191.323 562.924 187.694V186.726H615.79L618.814 201.122H617.846C613.008 193.017 604.66 188.541 597.644 188.541H579.619V227.978C585.063 227.857 592.079 227.978 598.249 226.769C601.394 226.164 604.297 222.897 606.475 219.873H607.322V235.6H606.475C604.66 232.696 601.515 231.245 598.249 230.64C592.079 229.551 585.063 229.914 579.619 229.793L579.982 270.198Z" fill="#003369"/>
<path d="M167.71 326.135V303.735H177.758C180.339 303.735 182.323 304.257 183.71 305.303C185.097 306.327 185.79 307.735 185.79 309.527C185.79 310.743 185.513 311.767 184.958 312.599C184.425 313.431 183.699 314.071 182.782 314.519C181.865 314.967 180.873 315.191 179.806 315.191L180.382 314.231C181.662 314.231 182.793 314.455 183.774 314.903C184.755 315.351 185.534 316.012 186.11 316.887C186.686 317.74 186.974 318.807 186.974 320.087C186.974 322.007 186.249 323.5 184.798 324.567C183.369 325.612 181.235 326.135 178.398 326.135H167.71ZM170.91 323.543H178.27C180.041 323.543 181.395 323.244 182.334 322.647C183.273 322.049 183.742 321.111 183.742 319.831C183.742 318.529 183.273 317.58 182.334 316.983C181.395 316.385 180.041 316.087 178.27 316.087H170.622V313.495H177.47C179.091 313.495 180.35 313.196 181.246 312.599C182.142 312.001 182.59 311.105 182.59 309.911C182.59 308.716 182.142 307.82 181.246 307.223C180.35 306.625 179.091 306.327 177.47 306.327H170.91V323.543ZM201.667 326.135V317.559L202.403 319.543L192.771 303.735H196.195L204.291 317.079H202.435L210.563 303.735H213.731L204.131 319.543L204.835 317.559V326.135H201.667ZM247.843 326.391C246.115 326.391 244.526 326.113 243.075 325.559C241.625 324.983 240.366 324.183 239.299 323.159C238.233 322.113 237.401 320.897 236.803 319.511C236.206 318.124 235.907 316.599 235.907 314.935C235.907 313.271 236.206 311.745 236.803 310.359C237.401 308.972 238.233 307.767 239.299 306.743C240.387 305.697 241.657 304.897 243.107 304.343C244.558 303.767 246.158 303.479 247.907 303.479C249.678 303.479 251.299 303.767 252.771 304.343C254.243 304.919 255.491 305.783 256.515 306.935L254.531 308.919C253.614 308.023 252.611 307.372 251.523 306.967C250.457 306.54 249.294 306.327 248.035 306.327C246.755 306.327 245.561 306.54 244.451 306.967C243.363 307.393 242.414 307.991 241.603 308.759C240.814 309.527 240.195 310.444 239.747 311.511C239.321 312.556 239.107 313.697 239.107 314.935C239.107 316.151 239.321 317.292 239.747 318.359C240.195 319.404 240.814 320.321 241.603 321.111C242.414 321.879 243.363 322.476 244.451 322.903C245.539 323.329 246.723 323.543 248.003 323.543C249.198 323.543 250.339 323.361 251.427 322.999C252.537 322.615 253.561 321.985 254.499 321.111L256.323 323.543C255.214 324.481 253.913 325.196 252.419 325.687C250.947 326.156 249.422 326.391 247.843 326.391ZM256.323 323.543L253.251 323.127V314.807H256.323V323.543ZM268.53 326.135V303.735H271.73V323.351H283.858V326.135H268.53ZM290.218 326.135L300.362 303.735H303.53L313.706 326.135H310.346L301.29 305.527H302.57L293.514 326.135H290.218ZM294.538 320.535L295.402 317.975H308.01L308.938 320.535H294.538ZM329.656 326.391C327.949 326.391 326.317 326.135 324.76 325.623C323.202 325.089 321.976 324.407 321.08 323.575L322.264 321.079C323.117 321.825 324.205 322.444 325.528 322.935C326.85 323.425 328.226 323.671 329.656 323.671C330.957 323.671 332.013 323.521 332.824 323.223C333.634 322.924 334.232 322.519 334.616 322.007C335 321.473 335.192 320.876 335.192 320.215C335.192 319.447 334.936 318.828 334.424 318.359C333.933 317.889 333.282 317.516 332.472 317.239C331.682 316.94 330.808 316.684 329.848 316.471C328.888 316.257 327.917 316.012 326.936 315.735C325.976 315.436 325.09 315.063 324.28 314.615C323.49 314.167 322.85 313.569 322.36 312.823C321.869 312.055 321.624 311.073 321.624 309.879C321.624 308.727 321.922 307.671 322.52 306.711C323.138 305.729 324.077 304.951 325.336 304.375C326.616 303.777 328.237 303.479 330.2 303.479C331.501 303.479 332.792 303.649 334.072 303.991C335.352 304.332 336.461 304.823 337.4 305.463L336.344 308.023C335.384 307.383 334.37 306.924 333.304 306.647C332.237 306.348 331.202 306.199 330.2 306.199C328.941 306.199 327.906 306.359 327.096 306.679C326.285 306.999 325.688 307.425 325.304 307.959C324.941 308.492 324.76 309.089 324.76 309.751C324.76 310.54 325.005 311.169 325.496 311.639C326.008 312.108 326.658 312.481 327.448 312.759C328.258 313.036 329.144 313.292 330.104 313.527C331.064 313.74 332.024 313.985 332.984 314.263C333.965 314.54 334.85 314.903 335.64 315.351C336.45 315.799 337.101 316.396 337.592 317.143C338.082 317.889 338.328 318.849 338.328 320.023C338.328 321.153 338.018 322.209 337.4 323.191C336.781 324.151 335.821 324.929 334.52 325.527C333.24 326.103 331.618 326.391 329.656 326.391ZM355.611 326.391C353.904 326.391 352.272 326.135 350.715 325.623C349.157 325.089 347.931 324.407 347.035 323.575L348.219 321.079C349.072 321.825 350.16 322.444 351.483 322.935C352.805 323.425 354.181 323.671 355.611 323.671C356.912 323.671 357.968 323.521 358.779 323.223C359.589 322.924 360.187 322.519 360.571 322.007C360.955 321.473 361.147 320.876 361.147 320.215C361.147 319.447 360.891 318.828 360.379 318.359C359.888 317.889 359.237 317.516 358.427 317.239C357.637 316.94 356.763 316.684 355.803 316.471C354.843 316.257 353.872 316.012 352.891 315.735C351.931 315.436 351.045 315.063 350.235 314.615C349.445 314.167 348.805 313.569 348.315 312.823C347.824 312.055 347.579 311.073 347.579 309.879C347.579 308.727 347.877 307.671 348.475 306.711C349.093 305.729 350.032 304.951 351.291 304.375C352.571 303.777 354.192 303.479 356.155 303.479C357.456 303.479 358.747 303.649 360.027 303.991C361.307 304.332 362.416 304.823 363.355 305.463L362.299 308.023C361.339 307.383 360.325 306.924 359.259 306.647C358.192 306.348 357.157 306.199 356.155 306.199C354.896 306.199 353.861 306.359 353.051 306.679C352.24 306.999 351.643 307.425 351.259 307.959C350.896 308.492 350.715 309.089 350.715 309.751C350.715 310.54 350.96 311.169 351.451 311.639C351.963 312.108 352.613 312.481 353.403 312.759C354.213 313.036 355.099 313.292 356.059 313.527C357.019 313.74 357.979 313.985 358.939 314.263C359.92 314.54 360.805 314.903 361.595 315.351C362.405 315.799 363.056 316.396 363.547 317.143C364.037 317.889 364.283 318.849 364.283 320.023C364.283 321.153 363.973 322.209 363.355 323.191C362.736 324.151 361.776 324.929 360.475 325.527C359.195 326.103 357.573 326.391 355.611 326.391ZM375.038 326.135V303.735H385.086C387.667 303.735 389.651 304.257 391.038 305.303C392.424 306.327 393.118 307.735 393.118 309.527C393.118 310.743 392.84 311.767 392.286 312.599C391.752 313.431 391.027 314.071 390.11 314.519C389.192 314.967 388.2 315.191 387.134 315.191L387.71 314.231C388.99 314.231 390.12 314.455 391.102 314.903C392.083 315.351 392.862 316.012 393.438 316.887C394.014 317.74 394.302 318.807 394.302 320.087C394.302 322.007 393.576 323.5 392.126 324.567C390.696 325.612 388.563 326.135 385.726 326.135H375.038ZM378.238 323.543H385.598C387.368 323.543 388.723 323.244 389.662 322.647C390.6 322.049 391.07 321.111 391.07 319.831C391.07 318.529 390.6 317.58 389.662 316.983C388.723 316.385 387.368 316.087 385.598 316.087H377.95V313.495H384.798C386.419 313.495 387.678 313.196 388.574 312.599C389.47 312.001 389.918 311.105 389.918 309.911C389.918 308.716 389.47 307.82 388.574 307.223C387.678 306.625 386.419 306.327 384.798 306.327H378.238V323.543ZM415.448 326.391C413.742 326.391 412.152 326.103 410.68 325.527C409.23 324.951 407.971 324.151 406.904 323.127C405.838 322.081 405.006 320.865 404.408 319.479C403.811 318.092 403.512 316.577 403.512 314.935C403.512 313.292 403.811 311.777 404.408 310.391C405.006 309.004 405.838 307.799 406.904 306.775C407.971 305.729 409.23 304.919 410.68 304.343C412.131 303.767 413.72 303.479 415.448 303.479C417.155 303.479 418.723 303.767 420.152 304.343C421.603 304.897 422.862 305.697 423.928 306.743C425.016 307.767 425.848 308.972 426.424 310.359C427.022 311.745 427.32 313.271 427.32 314.935C427.32 316.599 427.022 318.124 426.424 319.511C425.848 320.897 425.016 322.113 423.928 323.159C422.862 324.183 421.603 324.983 420.152 325.559C418.723 326.113 417.155 326.391 415.448 326.391ZM415.448 323.543C416.686 323.543 417.827 323.329 418.872 322.903C419.939 322.476 420.856 321.879 421.624 321.111C422.414 320.321 423.022 319.404 423.448 318.359C423.896 317.313 424.12 316.172 424.12 314.935C424.12 313.697 423.896 312.556 423.448 311.511C423.022 310.465 422.414 309.559 421.624 308.791C420.856 308.001 419.939 307.393 418.872 306.967C417.827 306.54 416.686 306.327 415.448 306.327C414.19 306.327 413.027 306.54 411.96 306.967C410.915 307.393 409.998 308.001 409.208 308.791C408.419 309.559 407.8 310.465 407.352 311.511C406.926 312.556 406.712 313.697 406.712 314.935C406.712 316.172 406.926 317.313 407.352 318.359C407.8 319.404 408.419 320.321 409.208 321.111C409.998 321.879 410.915 322.476 411.96 322.903C413.027 323.329 414.19 323.543 415.448 323.543ZM434.535 326.135L443.847 313.431V315.895L435.047 303.735H438.695L445.671 313.303L444.231 313.335L451.175 303.735H454.663L445.927 315.703V313.399L455.239 326.135H451.559L444.135 315.927H445.543L438.215 326.135H434.535Z" fill="url(#paint4_linear_809_814)"/>
<defs>
<linearGradient id="paint0_linear_809_814" x1="292.259" y1="0.633855" x2="433.59" y2="9.45267" gradientUnits="userSpaceOnUse">
<stop stop-color="#3BC3E6"/>
<stop offset="1" stop-color="#16B1A6"/>
</linearGradient>
<linearGradient id="paint1_linear_809_814" x1="292.259" y1="0.633855" x2="433.59" y2="9.45267" gradientUnits="userSpaceOnUse">
<stop stop-color="#3BC3E6"/>
<stop offset="1" stop-color="#16B1A6"/>
</linearGradient>
<linearGradient id="paint2_linear_809_814" x1="292.259" y1="0.633855" x2="433.59" y2="9.45267" gradientUnits="userSpaceOnUse">
<stop stop-color="#3BC3E6"/>
<stop offset="1" stop-color="#16B1A6"/>
</linearGradient>
<linearGradient id="paint3_linear_809_814" x1="292.259" y1="0.633855" x2="433.59" y2="9.45267" gradientUnits="userSpaceOnUse">
<stop stop-color="#3BC3E6"/>
<stop offset="1" stop-color="#16B1A6"/>
</linearGradient>
<linearGradient id="paint4_linear_809_814" x1="282.845" y1="304.24" x2="449.181" y2="403.91" gradientUnits="userSpaceOnUse">
<stop stop-color="#3BC3E6"/>
<stop offset="1" stop-color="#16B1A6"/>
</linearGradient>
</defs>
</svg>
